<svg id="visual" viewBox="0 0 900 600" width="900" height="600" xmlns="http://www.w3.org/2000/svg" xmlns:xlink="http://www.w3.org/1999/xlink" version="1.1"><rect x="0" y="0" width="900" height="600" fill="#3f3f46"></rect><path d="M507 600L571 500L570 400L565 300L535 200L539 100L545 0L900 0L900 100L900 200L900 300L900 400L900 500L900 600Z" fill="#3f3f46"></path><path d="M591 600L562 500L610 400L612 300L575 200L618 100L600 0L900 0L900 100L900 200L900 300L900 400L900 500L900 600Z" fill="#524b5f"></path><path d="M624 600L651 500L634 400L640 300L630 200L660 100L650 0L900 0L900 100L900 200L900 300L900 400L900 500L900 600Z" fill="#6d5475"></path><path d="M712 600L684 500L667 400L721 300L668 200L697 100L698 0L900 0L900 100L900 200L900 300L900 400L900 500L900 600Z" fill="#8f5c84"></path><path d="M766 600L737 500L748 400L754 300L731 200L753 100L724 0L900 0L900 100L900 200L900 300L900 400L900 500L900 600Z" fill="#b4628c"></path><path d="M815 600L815 500L810 400L781 300L795 200L769 100L793 0L900 0L900 100L900 200L900 300L900 400L900 500L900 600Z" fill="#d9688c"></path><path d="M828 600L850 500L862 400L833 300L831 200L848 100L858 0L900 0L900 100L900 200L900 300L900 400L900 500L900 600Z" fill="#fb7185"></path></svg>