<svg id="visual" viewBox="0 0 900 600" width="900" height="600" xmlns="http://www.w3.org/2000/svg" xmlns:xlink="http://www.w3.org/1999/xlink" version="1.1"><rect x="0" y="0" width="900" height="600" fill="#f8f8f8"></rect><path d="M0 297L150 295L300 313L450 273L600 279L750 274L900 293L900 0L750 0L600 0L450 0L300 0L150 0L0 0Z" fill="#f8f8f8"></path><path d="M0 243L150 257L300 268L450 248L600 230L750 244L900 265L900 0L750 0L600 0L450 0L300 0L150 0L0 0Z" fill="#fce2e4"></path><path d="M0 204L150 224L300 209L450 221L600 182L750 219L900 203L900 0L750 0L600 0L450 0L300 0L150 0L0 0Z" fill="#fecdd0"></path><path d="M0 173L150 167L300 184L450 154L600 173L750 164L900 163L900 0L750 0L600 0L450 0L300 0L150 0L0 0Z" fill="#ffb7bd"></path><path d="M0 114L150 118L300 133L450 117L600 115L750 111L900 128L900 0L750 0L600 0L450 0L300 0L150 0L0 0Z" fill="#ffa1aa"></path><path d="M0 87L150 103L300 91L450 84L600 78L750 96L900 79L900 0L750 0L600 0L450 0L300 0L150 0L0 0Z" fill="#fe8a97"></path><path d="M0 31L150 49L300 30L450 47L600 49L750 46L900 54L900 0L750 0L600 0L450 0L300 0L150 0L0 0Z" fill="#fb7185"></path></svg>