<svg id="visual" viewBox="0 0 900 600" width="900" height="600" xmlns="http://www.w3.org/2000/svg" xmlns:xlink="http://www.w3.org/1999/xlink" version="1.1"><g stroke-width="1" stroke-linejoin="bevel"><path d="M450 319L517 355L510 316Z" fill="#f8f6f6" stroke="#f8f6f6"></path><path d="M450 319L431 388L517 355Z" fill="#f4e5e7" stroke="#f4e5e7"></path><path d="M605 243L507 233L510 316Z" fill="#f4e5e7" stroke="#f4e5e7"></path><path d="M510 316L507 233L450 319Z" fill="#f8f8f8" stroke="#f8f8f8"></path><path d="M436 209L379 291L450 319Z" fill="#f6edee" stroke="#f6edee"></path><path d="M450 319L379 291L431 388Z" fill="#f8f6f6" stroke="#f8f6f6"></path><path d="M431 388L531 449L517 355Z" fill="#f5e9ea" stroke="#f5e9ea"></path><path d="M517 355L608 310L510 316Z" fill="#f5e7e9" stroke="#f5e7e9"></path><path d="M378 469L465 463L431 388Z" fill="#f6ebec" stroke="#f6ebec"></path><path d="M431 388L465 463L531 449Z" fill="#f4e5e7" stroke="#f4e5e7"></path><path d="M615 366L608 310L517 355Z" fill="#f6ebec" stroke="#f6ebec"></path><path d="M379 291L355 388L431 388Z" fill="#f6eff0" stroke="#f6eff0"></path><path d="M594 438L615 366L517 355Z" fill="#f7f4f4" stroke="#f7f4f4"></path><path d="M507 233L436 209L450 319Z" fill="#f6ebec" stroke="#f6ebec"></path><path d="M589 521L594 438L531 449Z" fill="#f5e7e9" stroke="#f5e7e9"></path><path d="M531 449L594 438L517 355Z" fill="#f8f6f6" stroke="#f8f6f6"></path><path d="M667 241L605 243L608 310Z" fill="#f6edee" stroke="#f6edee"></path><path d="M608 310L605 243L510 316Z" fill="#f5e7e9" stroke="#f5e7e9"></path><path d="M507 233L454 155L436 209Z" fill="#f6ebec" stroke="#f6ebec"></path><path d="M355 388L378 469L431 388Z" fill="#f6edee" stroke="#f6edee"></path><path d="M436 209L355 219L379 291Z" fill="#f7f4f4" stroke="#f7f4f4"></path><path d="M379 291L298 376L355 388Z" fill="#f7f1f2" stroke="#f7f1f2"></path><path d="M594 438L659 366L615 366Z" fill="#f5e9ea" stroke="#f5e9ea"></path><path d="M615 366L659 366L608 310Z" fill="#f8f8f8" stroke="#f8f8f8"></path><path d="M605 243L531 168L507 233Z" fill="#f7f1f2" stroke="#f7f1f2"></path><path d="M436 209L380 151L355 219Z" fill="#f7f1f2" stroke="#f7f1f2"></path><path d="M469 543L506 520L465 463Z" fill="#f7f4f4" stroke="#f7f4f4"></path><path d="M465 463L506 520L531 449Z" fill="#f6ebec" stroke="#f6ebec"></path><path d="M283 307L298 376L379 291Z" fill="#f4e3e5" stroke="#f4e3e5"></path><path d="M355 388L300 468L378 469Z" fill="#f6edee" stroke="#f6edee"></path><path d="M531 168L454 155L507 233Z" fill="#f4e5e7" stroke="#f4e5e7"></path><path d="M306 235L283 307L379 291Z" fill="#f8f6f6" stroke="#f8f6f6"></path><path d="M317 534L380 516L378 469Z" fill="#f6eff0" stroke="#f6eff0"></path><path d="M378 469L380 516L465 463Z" fill="#f4e3e5" stroke="#f4e3e5"></path><path d="M380 516L469 543L465 463Z" fill="#f6eff0" stroke="#f6eff0"></path><path d="M317 135L306 235L355 219Z" fill="#f6ebec" stroke="#f6ebec"></path><path d="M355 219L306 235L379 291Z" fill="#f7f4f4" stroke="#f7f4f4"></path><path d="M659 366L682 298L608 310Z" fill="#f7f4f4" stroke="#f7f4f4"></path><path d="M605 243L608 165L531 168Z" fill="#f6eff0" stroke="#f6eff0"></path><path d="M508 600L589 521L506 520Z" fill="#f4e5e7" stroke="#f4e5e7"></path><path d="M506 520L589 521L531 449Z" fill="#f4e5e7" stroke="#f4e5e7"></path><path d="M594 438L689 451L659 366Z" fill="#f7f1f2" stroke="#f7f1f2"></path><path d="M682 298L667 241L608 310Z" fill="#f5e9ea" stroke="#f5e9ea"></path><path d="M454 155L380 151L436 209Z" fill="#f5e7e9" stroke="#f5e7e9"></path><path d="M667 241L608 165L605 243Z" fill="#f4e5e7" stroke="#f4e5e7"></path><path d="M531 168L463 71L454 155Z" fill="#f4e3e5" stroke="#f4e3e5"></path><path d="M298 376L300 468L355 388Z" fill="#f8f8f8" stroke="#f8f8f8"></path><path d="M220 443L300 468L298 376Z" fill="#f5e7e9" stroke="#f5e7e9"></path><path d="M656 533L689 451L594 438Z" fill="#f6eff0" stroke="#f6eff0"></path><path d="M659 366L738 319L682 298Z" fill="#f5e9ea" stroke="#f5e9ea"></path><path d="M222 209L241 316L283 307Z" fill="#f8f8f8" stroke="#f8f8f8"></path><path d="M283 307L241 316L298 376Z" fill="#f6ebec" stroke="#f6ebec"></path><path d="M229 530L317 534L300 468Z" fill="#f8f6f6" stroke="#f8f6f6"></path><path d="M300 468L317 534L378 469Z" fill="#f5e7e9" stroke="#f5e7e9"></path><path d="M431 600L508 600L469 543Z" fill="#f4e5e7" stroke="#f4e5e7"></path><path d="M748 366L738 319L659 366Z" fill="#f4e3e5" stroke="#f4e3e5"></path><path d="M682 298L757 210L667 241Z" fill="#f4e3e5" stroke="#f4e3e5"></path><path d="M667 241L685 167L608 165Z" fill="#f5e9ea" stroke="#f5e9ea"></path><path d="M589 521L656 533L594 438Z" fill="#f4e3e5" stroke="#f4e3e5"></path><path d="M614 600L656 533L589 521Z" fill="#f6eff0" stroke="#f6eff0"></path><path d="M431 600L469 543L380 516Z" fill="#f7f1f2" stroke="#f7f1f2"></path><path d="M469 543L508 600L506 520Z" fill="#f8f6f6" stroke="#f8f6f6"></path><path d="M386 600L431 600L380 516Z" fill="#f5e9ea" stroke="#f5e9ea"></path><path d="M380 151L317 135L355 219Z" fill="#f7f4f4" stroke="#f7f4f4"></path><path d="M306 235L222 209L283 307Z" fill="#f7f1f2" stroke="#f7f1f2"></path><path d="M377 61L317 135L380 151Z" fill="#f6eff0" stroke="#f6eff0"></path><path d="M463 71L380 151L454 155Z" fill="#f8f6f6" stroke="#f8f6f6"></path><path d="M689 451L748 366L659 366Z" fill="#f4e3e5" stroke="#f4e3e5"></path><path d="M763 461L748 366L689 451Z" fill="#f8f8f8" stroke="#f8f8f8"></path><path d="M757 210L685 167L667 241Z" fill="#f5e7e9" stroke="#f5e7e9"></path><path d="M511 59L463 71L531 168Z" fill="#f6ebec" stroke="#f6ebec"></path><path d="M511 59L531 168L614 72Z" fill="#f8f8f8" stroke="#f8f8f8"></path><path d="M148 390L209 384L139 309Z" fill="#f6ebec" stroke="#f6ebec"></path><path d="M241 316L209 384L298 376Z" fill="#f5e7e9" stroke="#f5e7e9"></path><path d="M317 534L386 600L380 516Z" fill="#f4e3e5" stroke="#f4e3e5"></path><path d="M209 384L220 443L298 376Z" fill="#f5e9ea" stroke="#f5e9ea"></path><path d="M317 534L317 600L386 600Z" fill="#f5e9ea" stroke="#f5e9ea"></path><path d="M614 72L531 168L608 165Z" fill="#f7f1f2" stroke="#f7f1f2"></path><path d="M508 600L614 600L589 521Z" fill="#f4e3e5" stroke="#f4e3e5"></path><path d="M317 135L222 209L306 235Z" fill="#f8f6f6" stroke="#f8f6f6"></path><path d="M450 0L377 61L463 71Z" fill="#f4e5e7" stroke="#f4e5e7"></path><path d="M463 71L377 61L380 151Z" fill="#f6eff0" stroke="#f6eff0"></path><path d="M317 135L214 150L222 209Z" fill="#f5e9ea" stroke="#f5e9ea"></path><path d="M685 167L614 72L608 165Z" fill="#f4e5e7" stroke="#f4e5e7"></path><path d="M679 600L734 511L656 533Z" fill="#f4e5e7" stroke="#f4e5e7"></path><path d="M656 533L734 511L689 451Z" fill="#f6edee" stroke="#f6edee"></path><path d="M738 319L757 210L682 298Z" fill="#f4e3e5" stroke="#f4e3e5"></path><path d="M685 167L658 58L614 72Z" fill="#f8f6f6" stroke="#f8f6f6"></path><path d="M830 292L757 210L738 319Z" fill="#f7f4f4" stroke="#f7f4f4"></path><path d="M734 511L763 461L689 451Z" fill="#f5e9ea" stroke="#f5e9ea"></path><path d="M748 366L830 292L738 319Z" fill="#f6ebec" stroke="#f6ebec"></path><path d="M237 600L317 600L317 534Z" fill="#f6eff0" stroke="#f6eff0"></path><path d="M220 443L229 530L300 468Z" fill="#f4e3e5" stroke="#f4e3e5"></path><path d="M135 542L229 530L220 443Z" fill="#f7f4f4" stroke="#f7f4f4"></path><path d="M377 61L304 78L317 135Z" fill="#f5e7e9" stroke="#f5e7e9"></path><path d="M614 600L679 600L656 533Z" fill="#f4e5e7" stroke="#f4e5e7"></path><path d="M304 78L214 150L317 135Z" fill="#f8f6f6" stroke="#f8f6f6"></path><path d="M139 309L209 384L241 316Z" fill="#f5e7e9" stroke="#f5e7e9"></path><path d="M757 210L750 148L685 167Z" fill="#f4e3e5" stroke="#f4e3e5"></path><path d="M750 148L658 58L685 167Z" fill="#f4e3e5" stroke="#f4e3e5"></path><path d="M543 0L450 0L511 59Z" fill="#f8f8f8" stroke="#f8f8f8"></path><path d="M164 228L241 316L222 209Z" fill="#f7f1f2" stroke="#f7f1f2"></path><path d="M209 384L148 390L220 443Z" fill="#f7f1f2" stroke="#f7f1f2"></path><path d="M169 166L164 228L222 209Z" fill="#f6ebec" stroke="#f6ebec"></path><path d="M511 59L450 0L463 71Z" fill="#f5e7e9" stroke="#f5e7e9"></path><path d="M377 61L285 0L304 78Z" fill="#f5e9ea" stroke="#f5e9ea"></path><path d="M543 0L511 59L614 72Z" fill="#f7f1f2" stroke="#f7f1f2"></path><path d="M836 539L763 461L734 511Z" fill="#f6ebec" stroke="#f6ebec"></path><path d="M836 539L809 444L763 461Z" fill="#f6eff0" stroke="#f6eff0"></path><path d="M763 461L809 444L748 366Z" fill="#f6eff0" stroke="#f6eff0"></path><path d="M757 210L805 166L750 148Z" fill="#f6edee" stroke="#f6edee"></path><path d="M164 228L139 309L241 316Z" fill="#f8f8f8" stroke="#f8f8f8"></path><path d="M602 0L543 0L614 72Z" fill="#f6eff0" stroke="#f6eff0"></path><path d="M842 387L830 292L748 366Z" fill="#f4e5e7" stroke="#f4e5e7"></path><path d="M450 0L381 0L377 61Z" fill="#f7f4f4" stroke="#f7f4f4"></path><path d="M135 69L169 166L214 150Z" fill="#f7f4f4" stroke="#f7f4f4"></path><path d="M167 600L237 600L229 530Z" fill="#f7f4f4" stroke="#f7f4f4"></path><path d="M229 530L237 600L317 534Z" fill="#f6eff0" stroke="#f6eff0"></path><path d="M214 150L169 166L222 209Z" fill="#f7f1f2" stroke="#f7f1f2"></path><path d="M164 228L88 296L139 309Z" fill="#f8f6f6" stroke="#f8f6f6"></path><path d="M223 60L214 150L304 78Z" fill="#f7f1f2" stroke="#f7f1f2"></path><path d="M689 0L602 0L658 58Z" fill="#f8f8f8" stroke="#f8f8f8"></path><path d="M658 58L602 0L614 72Z" fill="#f4e5e7" stroke="#f4e5e7"></path><path d="M809 444L842 387L748 366Z" fill="#f5e9ea" stroke="#f5e9ea"></path><path d="M67 443L130 436L57 386Z" fill="#f6edee" stroke="#f6edee"></path><path d="M148 390L130 436L220 443Z" fill="#f6eff0" stroke="#f6eff0"></path><path d="M844 209L805 166L757 210Z" fill="#f4e3e5" stroke="#f4e3e5"></path><path d="M750 148L760 65L658 58Z" fill="#f8f8f8" stroke="#f8f8f8"></path><path d="M679 600L748 600L734 511Z" fill="#f6ebec" stroke="#f6ebec"></path><path d="M900 454L900 375L842 387Z" fill="#f7f4f4" stroke="#f7f4f4"></path><path d="M285 0L223 60L304 78Z" fill="#f5e9ea" stroke="#f5e9ea"></path><path d="M830 292L844 209L757 210Z" fill="#f4e5e7" stroke="#f4e5e7"></path><path d="M900 230L844 209L830 292Z" fill="#f6ebec" stroke="#f6ebec"></path><path d="M837 70L760 65L805 166Z" fill="#f8f6f6" stroke="#f8f6f6"></path><path d="M805 166L760 65L750 148Z" fill="#f6eff0" stroke="#f6eff0"></path><path d="M381 0L285 0L377 61Z" fill="#f8f8f8" stroke="#f8f8f8"></path><path d="M60 209L88 296L164 228Z" fill="#f4e5e7" stroke="#f4e5e7"></path><path d="M139 309L57 386L148 390Z" fill="#f4e3e5" stroke="#f4e3e5"></path><path d="M60 209L164 228L169 166Z" fill="#f5e7e9" stroke="#f5e7e9"></path><path d="M760 65L689 0L658 58Z" fill="#f5e9ea" stroke="#f5e9ea"></path><path d="M130 436L135 542L220 443Z" fill="#f6ebec" stroke="#f6ebec"></path><path d="M59 523L135 542L130 436Z" fill="#f6edee" stroke="#f6edee"></path><path d="M748 600L836 539L734 511Z" fill="#f7f1f2" stroke="#f7f1f2"></path><path d="M135 542L167 600L229 530Z" fill="#f5e7e9" stroke="#f5e7e9"></path><path d="M748 600L809 600L836 539Z" fill="#f7f1f2" stroke="#f7f1f2"></path><path d="M900 454L842 387L809 444Z" fill="#f4e5e7" stroke="#f4e5e7"></path><path d="M842 387L900 307L830 292Z" fill="#f7f1f2" stroke="#f7f1f2"></path><path d="M900 375L900 307L842 387Z" fill="#f6edee" stroke="#f6edee"></path><path d="M57 386L130 436L148 390Z" fill="#f6ebec" stroke="#f6ebec"></path><path d="M135 542L66 600L167 600Z" fill="#f7f1f2" stroke="#f7f1f2"></path><path d="M760 65L737 0L689 0Z" fill="#f4e5e7" stroke="#f4e5e7"></path><path d="M832 0L737 0L760 65Z" fill="#f6eff0" stroke="#f6eff0"></path><path d="M837 70L805 166L900 147Z" fill="#f8f8f8" stroke="#f8f8f8"></path><path d="M88 296L57 386L139 309Z" fill="#f7f4f4" stroke="#f7f4f4"></path><path d="M900 307L900 230L830 292Z" fill="#f8f6f6" stroke="#f8f6f6"></path><path d="M900 521L900 454L836 539Z" fill="#f8f8f8" stroke="#f8f8f8"></path><path d="M836 539L900 454L809 444Z" fill="#f6eff0" stroke="#f6eff0"></path><path d="M285 0L212 0L223 60Z" fill="#f7f4f4" stroke="#f7f4f4"></path><path d="M223 60L135 69L214 150Z" fill="#f6edee" stroke="#f6edee"></path><path d="M167 0L135 69L223 60Z" fill="#f6ebec" stroke="#f6ebec"></path><path d="M88 296L0 360L57 386Z" fill="#f7f1f2" stroke="#f7f1f2"></path><path d="M66 134L60 209L169 166Z" fill="#f6eff0" stroke="#f6eff0"></path><path d="M900 147L805 166L844 209Z" fill="#f4e5e7" stroke="#f4e5e7"></path><path d="M900 600L900 521L836 539Z" fill="#f5e7e9" stroke="#f5e7e9"></path><path d="M0 459L59 523L67 443Z" fill="#f5e9ea" stroke="#f5e9ea"></path><path d="M67 443L59 523L130 436Z" fill="#f7f1f2" stroke="#f7f1f2"></path><path d="M900 230L900 147L844 209Z" fill="#f5e7e9" stroke="#f5e7e9"></path><path d="M212 0L167 0L223 60Z" fill="#f8f8f8" stroke="#f8f8f8"></path><path d="M135 69L66 134L169 166Z" fill="#f4e5e7" stroke="#f4e5e7"></path><path d="M63 72L66 134L135 69Z" fill="#f5e9ea" stroke="#f5e9ea"></path><path d="M0 285L0 360L88 296Z" fill="#f4e3e5" stroke="#f4e3e5"></path><path d="M57 386L0 459L67 443Z" fill="#f8f6f6" stroke="#f8f6f6"></path><path d="M0 285L88 296L60 209Z" fill="#f7f1f2" stroke="#f7f1f2"></path><path d="M0 205L0 285L60 209Z" fill="#f5e9ea" stroke="#f5e9ea"></path><path d="M0 537L66 600L59 523Z" fill="#f6eff0" stroke="#f6eff0"></path><path d="M59 523L66 600L135 542Z" fill="#f7f4f4" stroke="#f7f4f4"></path><path d="M900 0L832 0L837 70Z" fill="#f6eff0" stroke="#f6eff0"></path><path d="M837 70L832 0L760 65Z" fill="#f7f4f4" stroke="#f7f4f4"></path><path d="M900 147L900 87L837 70Z" fill="#f4e3e5" stroke="#f4e3e5"></path><path d="M809 600L900 600L836 539Z" fill="#f8f6f6" stroke="#f8f6f6"></path><path d="M0 360L0 459L57 386Z" fill="#f8f6f6" stroke="#f8f6f6"></path><path d="M65 0L63 72L135 69Z" fill="#f8f8f8" stroke="#f8f8f8"></path><path d="M66 134L0 205L60 209Z" fill="#f4e5e7" stroke="#f4e5e7"></path><path d="M0 130L0 205L66 134Z" fill="#f6eff0" stroke="#f6eff0"></path><path d="M0 459L0 537L59 523Z" fill="#f8f6f6" stroke="#f8f6f6"></path><path d="M0 79L0 130L66 134Z" fill="#f7f1f2" stroke="#f7f1f2"></path><path d="M167 0L65 0L135 69Z" fill="#f6ebec" stroke="#f6ebec"></path><path d="M63 72L0 79L66 134Z" fill="#f6edee" stroke="#f6edee"></path><path d="M900 87L900 0L837 70Z" fill="#f7f4f4" stroke="#f7f4f4"></path><path d="M0 537L0 600L66 600Z" fill="#f5e7e9" stroke="#f5e7e9"></path><path d="M0 0L0 79L63 72Z" fill="#f6edee" stroke="#f6edee"></path><path d="M65 0L0 0L63 72Z" fill="#f6edee" stroke="#f6edee"></path></g></svg>