<svg id="visual" viewBox="0 0 1800 300" style="min-width=100%; min-height=300px" width="100%" height="300" xmlns="http://www.w3.org/2000/svg" xmlns:xlink="http://www.w3.org/1999/xlink" version="1.1"><path d="M0 28L164 43L327 28L491 19L655 49L818 46L982 22L1145 49L1309 28L1473 40L1636 34L1800 52L1800 0L1636 0L1473 0L1309 0L1145 0L982 0L818 0L655 0L491 0L327 0L164 0L0 0Z" fill="#fb7185"></path><path d="M0 70L164 91L327 52L491 40L655 94L818 76L982 82L1145 94L1309 73L1473 67L1636 61L1800 109L1800 50L1636 32L1473 38L1309 26L1145 47L982 20L818 44L655 47L491 17L327 26L164 41L0 26Z" fill="#c7658d"></path><path d="M0 184L164 175L327 142L491 130L655 190L818 190L982 157L1145 199L1309 184L1473 139L1636 139L1800 205L1800 107L1636 59L1473 65L1309 71L1145 92L982 80L818 74L655 92L491 38L327 50L164 89L0 68Z" fill="#8f5c84"></path><path d="M0 265L164 232L327 205L491 217L655 250L818 250L982 235L1145 223L1309 241L1473 208L1636 199L1800 229L1800 203L1636 137L1473 137L1309 182L1145 197L982 155L818 188L655 188L491 128L327 140L164 173L0 182Z" fill="#5f506b"></path><path d="M0 301L164 301L327 301L491 301L655 301L818 301L982 301L1145 301L1309 301L1473 301L1636 301L1800 301L1800 227L1636 197L1473 206L1309 239L1145 221L982 233L818 248L655 248L491 215L327 203L164 230L0 263Z" fill="#3f3f46"></path></svg>