<svg id="visual" viewBox="0 0 900 600" width="900" height="600" xmlns="http://www.w3.org/2000/svg" xmlns:xlink="http://www.w3.org/1999/xlink" version="1.1"><rect x="0" y="0" width="900" height="600" fill="#3f3f46"></rect><path d="M0 414L129 389L257 416L386 413L514 418L643 404L771 417L900 392L900 601L771 601L643 601L514 601L386 601L257 601L129 601L0 601Z" fill="#3f3f46"></path><path d="M0 446L129 448L257 435L386 417L514 439L643 428L771 432L900 436L900 601L771 601L643 601L514 601L386 601L257 601L129 601L0 601Z" fill="#574d64"></path><path d="M0 481L129 448L257 468L386 477L514 463L643 453L771 448L900 471L900 601L771 601L643 601L514 601L386 601L257 601L129 601L0 601Z" fill="#7a587c"></path><path d="M0 499L129 499L257 505L386 495L514 503L643 487L771 508L900 493L900 601L771 601L643 601L514 601L386 601L257 601L129 601L0 601Z" fill="#a5608a"></path><path d="M0 549L129 534L257 525L386 533L514 536L643 521L771 548L900 520L900 601L771 601L643 601L514 601L386 601L257 601L129 601L0 601Z" fill="#d2678d"></path><path d="M0 557L129 548L257 552L386 572L514 558L643 569L771 557L900 567L900 601L771 601L643 601L514 601L386 601L257 601L129 601L0 601Z" fill="#fb7185"></path></svg>