<svg id="visual" viewBox="0 0 960 540" width="960" height="540" xmlns="http://www.w3.org/2000/svg" xmlns:xlink="http://www.w3.org/1999/xlink" version="1.1"><g stroke-width="1" stroke-linejoin="bevel"><path d="M511.3 254L626 182L512.3 167Z" fill="#f7f2f2" stroke="#f7f2f2"></path><path d="M511.3 254L608 270L626 182Z" fill="#f7eff0" stroke="#f7eff0"></path><path d="M626 182L626 115L512.3 167Z" fill="#f6e9eb" stroke="#f6e9eb"></path><path d="M626 115L541.3 84L512.3 167Z" fill="#f7f2f2" stroke="#f7f2f2"></path><path d="M608 270L730.7 183L626 182Z" fill="#f7f3f4" stroke="#f7f3f4"></path><path d="M626 182L730.7 183L626 115Z" fill="#f6eaec" stroke="#f6eaec"></path><path d="M541.3 84L429.7 105L512.3 167Z" fill="#f8f8f8" stroke="#f8f8f8"></path><path d="M512.3 167L394.7 173L511.3 254Z" fill="#f8f8f8" stroke="#f8f8f8"></path><path d="M409.7 300L552.3 384L511.3 254Z" fill="#f8f8f8" stroke="#f8f8f8"></path><path d="M511.3 254L552.3 384L608 270Z" fill="#f8f5f5" stroke="#f8f5f5"></path><path d="M608 270L768.7 292L730.7 183Z" fill="#f7eff0" stroke="#f7eff0"></path><path d="M429.7 105L394.7 173L512.3 167Z" fill="#f7eff0" stroke="#f7eff0"></path><path d="M552.3 384L669 351L608 270Z" fill="#f7eff0" stroke="#f7eff0"></path><path d="M394.7 173L409.7 300L511.3 254Z" fill="#f7f3f4" stroke="#f7f3f4"></path><path d="M730.7 183L736.7 108L626 115Z" fill="#f6e9eb" stroke="#f6e9eb"></path><path d="M666 0L519.3 0L541.3 84Z" fill="#f7f0f1" stroke="#f7f0f1"></path><path d="M442.7 428L540.3 422L552.3 384Z" fill="#f7eff0" stroke="#f7eff0"></path><path d="M552.3 384L639 429L669 351Z" fill="#f6eaec" stroke="#f6eaec"></path><path d="M666 0L541.3 84L626 115Z" fill="#f6eced" stroke="#f6eced"></path><path d="M541.3 84L440.7 0L429.7 105Z" fill="#f7f0f1" stroke="#f7f0f1"></path><path d="M669 351L768.7 292L608 270Z" fill="#f8f8f8" stroke="#f8f8f8"></path><path d="M730.7 183L825.3 193L736.7 108Z" fill="#f7eff0" stroke="#f7eff0"></path><path d="M348 332L411.7 379L409.7 300Z" fill="#f6e9eb" stroke="#f6e9eb"></path><path d="M409.7 300L411.7 379L552.3 384Z" fill="#f6eced" stroke="#f6eced"></path><path d="M540.3 422L639 429L552.3 384Z" fill="#f7f0f1" stroke="#f7f0f1"></path><path d="M669 351L724.7 378L768.7 292Z" fill="#f6e9eb" stroke="#f6e9eb"></path><path d="M639 429L724.7 378L669 351Z" fill="#f6eaec" stroke="#f6eaec"></path><path d="M736.7 108L666 0L626 115Z" fill="#f6eaec" stroke="#f6eaec"></path><path d="M303 196L334 290L394.7 173Z" fill="#f6e9eb" stroke="#f6e9eb"></path><path d="M394.7 173L334 290L409.7 300Z" fill="#f7eff0" stroke="#f7eff0"></path><path d="M519.3 0L440.7 0L541.3 84Z" fill="#f6eced" stroke="#f6eced"></path><path d="M288 87L303 196L394.7 173Z" fill="#f7f2f2" stroke="#f7f2f2"></path><path d="M334 290L348 332L409.7 300Z" fill="#f7f3f4" stroke="#f7f3f4"></path><path d="M293 432L442.7 428L411.7 379Z" fill="#f6eaec" stroke="#f6eaec"></path><path d="M411.7 379L442.7 428L552.3 384Z" fill="#f7f0f1" stroke="#f7f0f1"></path><path d="M540.3 422L634 540L639 429Z" fill="#f8f8f8" stroke="#f8f8f8"></path><path d="M830.3 279L825.3 193L768.7 292Z" fill="#f8f6f7" stroke="#f8f6f7"></path><path d="M768.7 292L825.3 193L730.7 183Z" fill="#f8f5f5" stroke="#f8f5f5"></path><path d="M736.7 108L728.7 0L666 0Z" fill="#f7eff0" stroke="#f7eff0"></path><path d="M288 87L394.7 173L429.7 105Z" fill="#f6eced" stroke="#f6eced"></path><path d="M848.3 104L728.7 0L736.7 108Z" fill="#f7edef" stroke="#f7edef"></path><path d="M839.3 353L830.3 279L768.7 292Z" fill="#f8f6f7" stroke="#f8f6f7"></path><path d="M309 0L288 87L429.7 105Z" fill="#f8f5f5" stroke="#f8f5f5"></path><path d="M825.3 193L848.3 104L736.7 108Z" fill="#f7eff0" stroke="#f7eff0"></path><path d="M960 164L848.3 104L825.3 193Z" fill="#f7f2f2" stroke="#f7f2f2"></path><path d="M773.7 441L839.3 353L724.7 378Z" fill="#f8f6f7" stroke="#f8f6f7"></path><path d="M724.7 378L839.3 353L768.7 292Z" fill="#f8f6f7" stroke="#f8f6f7"></path><path d="M830.3 279L960 250L825.3 193Z" fill="#f8f8f8" stroke="#f8f8f8"></path><path d="M639 429L773.7 441L724.7 378Z" fill="#f8f8f8" stroke="#f8f8f8"></path><path d="M634 540L773.7 441L639 429Z" fill="#f7f3f4" stroke="#f7f3f4"></path><path d="M440.7 0L309 0L429.7 105Z" fill="#f7edef" stroke="#f7edef"></path><path d="M454.7 540L516.3 540L442.7 428Z" fill="#f7f0f1" stroke="#f7f0f1"></path><path d="M442.7 428L516.3 540L540.3 422Z" fill="#f7f0f1" stroke="#f7f0f1"></path><path d="M223.3 111L234.3 148L288 87Z" fill="#f7eff0" stroke="#f7eff0"></path><path d="M288 87L234.3 148L303 196Z" fill="#f7f3f4" stroke="#f7f3f4"></path><path d="M303 196L222.3 247L334 290Z" fill="#f7edef" stroke="#f7edef"></path><path d="M334 290L196.3 335L348 332Z" fill="#f7f3f4" stroke="#f7f3f4"></path><path d="M516.3 540L634 540L540.3 422Z" fill="#f8f5f5" stroke="#f8f5f5"></path><path d="M234.3 148L222.3 247L303 196Z" fill="#f7edef" stroke="#f7edef"></path><path d="M320 540L454.7 540L442.7 428Z" fill="#f7edef" stroke="#f7edef"></path><path d="M293 432L411.7 379L348 332Z" fill="#f7eff0" stroke="#f7eff0"></path><path d="M196.3 335L293 432L348 332Z" fill="#f6eaec" stroke="#f6eaec"></path><path d="M244.3 0L223.3 111L288 87Z" fill="#f7f3f4" stroke="#f7f3f4"></path><path d="M234.3 148L82.7 183L222.3 247Z" fill="#f8f5f5" stroke="#f8f5f5"></path><path d="M960 87L877.3 0L848.3 104Z" fill="#f7eff0" stroke="#f7eff0"></path><path d="M848.3 104L877.3 0L728.7 0Z" fill="#f8f6f7" stroke="#f8f6f7"></path><path d="M309 0L244.3 0L288 87Z" fill="#f7edef" stroke="#f7edef"></path><path d="M115.7 363L196.3 335L78.7 280Z" fill="#f8f8f8" stroke="#f8f8f8"></path><path d="M222.3 247L196.3 335L334 290Z" fill="#f6eced" stroke="#f6eced"></path><path d="M773.7 441L852.3 480L839.3 353Z" fill="#f7f0f1" stroke="#f7f0f1"></path><path d="M634 540L775.7 540L773.7 441Z" fill="#f6e9eb" stroke="#f6e9eb"></path><path d="M775.7 540L852.3 480L773.7 441Z" fill="#f8f5f5" stroke="#f8f5f5"></path><path d="M839.3 353L960 250L830.3 279Z" fill="#f8f8f8" stroke="#f8f8f8"></path><path d="M960 388L960 250L839.3 353Z" fill="#f6eced" stroke="#f6eced"></path><path d="M960 250L960 164L825.3 193Z" fill="#f6eaec" stroke="#f6eaec"></path><path d="M197.3 540L320 540L293 432Z" fill="#f8f8f8" stroke="#f8f8f8"></path><path d="M293 432L320 540L442.7 428Z" fill="#f7edef" stroke="#f7edef"></path><path d="M960 164L960 87L848.3 104Z" fill="#f7f0f1" stroke="#f7f0f1"></path><path d="M196.3 335L199.3 431L293 432Z" fill="#f8f6f7" stroke="#f8f6f7"></path><path d="M775.7 540L840.3 540L852.3 480Z" fill="#f7f2f2" stroke="#f7f2f2"></path><path d="M852.3 480L960 388L839.3 353Z" fill="#f8f5f5" stroke="#f8f5f5"></path><path d="M960 457L960 388L852.3 480Z" fill="#f7edef" stroke="#f7edef"></path><path d="M960 87L960 0L877.3 0Z" fill="#f6e9eb" stroke="#f6e9eb"></path><path d="M960 540L960 457L852.3 480Z" fill="#f7f3f4" stroke="#f7f3f4"></path><path d="M78.7 280L196.3 335L222.3 247Z" fill="#f7f2f2" stroke="#f7f2f2"></path><path d="M196.3 335L115.7 363L199.3 431Z" fill="#f7eff0" stroke="#f7eff0"></path><path d="M199.3 431L197.3 540L293 432Z" fill="#f6eced" stroke="#f6eced"></path><path d="M82.7 183L234.3 148L223.3 111Z" fill="#f6eaec" stroke="#f6eaec"></path><path d="M244.3 0L133.7 0L223.3 111Z" fill="#f6eaec" stroke="#f6eaec"></path><path d="M94.7 63L82.7 183L223.3 111Z" fill="#f7f3f4" stroke="#f7f3f4"></path><path d="M82.7 183L78.7 280L222.3 247Z" fill="#f7f3f4" stroke="#f7f3f4"></path><path d="M133.7 0L94.7 63L223.3 111Z" fill="#f7f3f4" stroke="#f7f3f4"></path><path d="M127.7 540L197.3 540L199.3 431Z" fill="#f8f5f5" stroke="#f8f5f5"></path><path d="M0 364L100.7 420L115.7 363Z" fill="#f6e9eb" stroke="#f6e9eb"></path><path d="M115.7 363L100.7 420L199.3 431Z" fill="#f7f0f1" stroke="#f7f0f1"></path><path d="M840.3 540L960 540L852.3 480Z" fill="#f7f2f2" stroke="#f7f2f2"></path><path d="M100.7 420L127.7 540L199.3 431Z" fill="#f6e9eb" stroke="#f6e9eb"></path><path d="M78.7 280L0 364L115.7 363Z" fill="#f6eaec" stroke="#f6eaec"></path><path d="M100.7 420L0 466L127.7 540Z" fill="#f8f8f8" stroke="#f8f8f8"></path><path d="M82.7 183L0 262L78.7 280Z" fill="#f6eced" stroke="#f6eced"></path><path d="M0 151L0 262L82.7 183Z" fill="#f7eff0" stroke="#f7eff0"></path><path d="M0 75L0 151L94.7 63Z" fill="#f7f0f1" stroke="#f7f0f1"></path><path d="M94.7 63L0 151L82.7 183Z" fill="#f8f8f8" stroke="#f8f8f8"></path><path d="M0 0L0 75L94.7 63Z" fill="#f7f0f1" stroke="#f7f0f1"></path><path d="M0 262L0 364L78.7 280Z" fill="#f7f3f4" stroke="#f7f3f4"></path><path d="M133.7 0L0 0L94.7 63Z" fill="#f7eff0" stroke="#f7eff0"></path><path d="M0 364L0 466L100.7 420Z" fill="#f7f2f2" stroke="#f7f2f2"></path><path d="M0 466L0 540L127.7 540Z" fill="#f8f8f8" stroke="#f8f8f8"></path></g></svg>