<?xml version="1.0" encoding="UTF-8" standalone="no" ?>
<!DOCTYPE svg PUBLIC "-//W3C//DTD SVG 1.1//EN" "http://www.w3.org/Graphics/SVG/1.1/DTD/svg11.dtd">
<svg xmlns="http://www.w3.org/2000/svg" xmlns:xlink="http://www.w3.org/1999/xlink" version="1.1" width="900" height="900" viewBox="0 0 900 900" xml:space="preserve">
<desc>Created with Fabric.js 5.3.0</desc>
<defs>
</defs>
<g transform="matrix(2.6342770149 0 0 2.6342770149 5403.8981538401 2284.3661501466)" id="Ldy38MrrwUkdgHiykNran"  >
<path style="stroke: rgb(0,0,0); stroke-width: 0; stroke-dasharray: none; stroke-linecap: butt; stroke-dashoffset: 0; stroke-linejoin: miter; stroke-miterlimit: 4; fill: rgb(0,0,0); fill-rule: nonzero; opacity: 1;" vector-effect="non-scaling-stroke"  transform=" translate(0.000005, 0)" d="M 120.05518 -116.50361 L -146.73367000000002 -116.50361 L -12.206890000000016 116.50361 L 1.0390799999999842 93.63165 L -107.00352000000001 -93.50362 L 146.73366 -93.50362 z" stroke-linecap="round" />
</g>
<g transform="matrix(-1.3249786176 2.2949302847 -2.2949302847 -1.3249786176 5405.81114072 2238.4074243681)" id="uIlh9sV-3CpMwaCNRFoD1"  >
<path style="stroke: rgb(0,0,0); stroke-width: 0; stroke-dasharray: none; stroke-linecap: butt; stroke-dashoffset: 0; stroke-linejoin: miter; stroke-miterlimit: 4; fill: rgb(0,0,0); fill-rule: nonzero; opacity: 1;" vector-effect="non-scaling-stroke"  transform=" translate(0.000005, 0)" d="M 120.05518 -116.50361 L -146.73367000000002 -116.50361 L -12.206890000000016 116.50361 L 1.0390799999999842 93.63165 L -107.00352000000001 -93.50362 L 146.73366 -93.50362 z" stroke-linecap="round" />
</g>
<g transform="matrix(1 0 0 1 3898.3168800968 -1193.7394351852)" id="PuGpdrwEkyVIygdSwzLd8"  >
<linearGradient id="SVGID_950_2" gradientUnits="userSpaceOnUse" gradientTransform="matrix(1 0 0 1 0 0)"  x1="312.6239293651385" y1="-25.490196078431524" x2="312.6239293651385" y2="576.2282508871461">
<stop offset="0%" style="stop-color:#FE842C;stop-opacity: 1"/>
<stop offset="42.31688129915172%" style="stop-color:#FF0495;stop-opacity: 1"/>
<stop offset="100%" style="stop-color:#BA00D3;stop-opacity: 1"/>
</linearGradient>
<path style="stroke: rgb(160,126,73); stroke-width: 0; stroke-dasharray: none; stroke-linecap: butt; stroke-dashoffset: 0; stroke-linejoin: miter; stroke-miterlimit: 4; fill: url(#SVGID_950_2); fill-rule: nonzero; opacity: 1;" vector-effect="non-scaling-stroke"  transform=" translate(-271.1176, -247.13925)" d="M 493.02513 38.64 L 66.74667 38.64 L 248.25823 353.02725 L 226.005 391.45214 L 0 0 L 448.20527 0 z M 260.5929 460.1835 L 475.00081 88.81809999999996 L 109.81682999999998 88.81809999999996 L 87.53466999999998 50.10471999999996 L 542.2352 50.10471999999996 L 316.79863 440.57232 z M 11.31232 45.32972 L 225.72023 416.69512000000003 L 408.31222 100.43652000000003 L 452.98007 100.49629000000003 L 225.62980000000002 494.27850000000007 L 0.1932300000000282 103.81090000000006 z" stroke-linecap="round" />
</g>
<g transform="matrix(-1.3249786176 -2.2949302847 2.2949302847 -1.3249786176 5444.1022387586 2261.3946273675)" id="JCCWci9rfOVku9-7x-0UB"  >
<path style="stroke: rgb(0,0,0); stroke-width: 0; stroke-dasharray: none; stroke-linecap: butt; stroke-dashoffset: 0; stroke-linejoin: miter; stroke-miterlimit: 4; fill: rgb(0,0,0); fill-rule: nonzero; opacity: 1;" vector-effect="non-scaling-stroke"  transform=" translate(0.000005, 0)" d="M 120.05518 -116.50361 L -146.73367000000002 -116.50361 L -12.206890000000016 116.50361 L 1.0390799999999842 93.63165 L -107.00352000000001 -93.50362 L 146.73366 -93.50362 z" stroke-linecap="round" />
</g>
<g transform="matrix(-0.69 -1.1951150572 1.1951150572 -0.69 2129.0883118952 -617.9056846241)" id="fXT7XFGnoUlGLGuNBesAe"  >
<path style="stroke: rgb(0,0,0); stroke-width: 0; stroke-dasharray: none; stroke-linecap: butt; stroke-dashoffset: 0; stroke-linejoin: miter; stroke-miterlimit: 4; fill: rgb(255,4,149); fill-rule: nonzero; opacity: 1;" vector-effect="non-scaling-stroke"  transform=" translate(0.00001, 0)" d="M 121.50777 -116.50361 L -150.36515000000003 -116.50361 L -15.838370000000026 116.50361 L -2.5924000000000262 93.63165 L -110.63500000000002 -93.50362 L 150.36513 -93.50362 z" stroke-linecap="round" />
</g>
<g transform="matrix(1 0 0 1 2803.8466666667 1414.3633333333)" id="h-VwDP2j-0H7DGBWxstcg"  >
<linearGradient id="SVGID_3" gradientUnits="userSpaceOnUse" gradientTransform="matrix(1 0 0 1 0 0)"  x1="306.7415806" y1="-82.35294117647071" x2="306.74157642396204" y2="613.4831528479302">
<stop offset="0%" style="stop-color:#FFB604;stop-opacity: 1"/>
<stop offset="50.57834436009464%" style="stop-color:#FF0495;stop-opacity: 1"/>
<stop offset="100%" style="stop-color:#AB03C1;stop-opacity: 1"/>
</linearGradient>
<path style="stroke: rgb(160,126,73); stroke-width: 0; stroke-dasharray: none; stroke-linecap: butt; stroke-dashoffset: 0; stroke-linejoin: miter; stroke-miterlimit: 4; fill: url(#SVGID_3); fill-rule: nonzero; opacity: 1;" vector-effect="non-scaling-stroke"  transform=" translate(-306.741575, -306.741575)" d="M 0 0 L 613.48315 0 L 613.48315 613.48315 L 0 613.48315 z M 483.79429 67.75022 L 35.589020000000005 67.75022 L 261.59402 459.20236 L 283.84725 420.77747 L 102.33568999999997 106.39022 L 528.61415 106.39022 z M 34.78226 184.56112 L 260.21882999999997 575.02872 L 487.56909999999993 181.24651 L 442.90124999999995 181.18674000000001 L 260.30925999999994 497.44534 L 45.90133999999995 126.07993999999997 z M 362.38765 515.07255 L 587.82422 124.60494999999997 L 133.12368999999995 124.60494999999997 L 155.40584999999996 163.31832999999997 L 520.58983 163.31832999999997 L 306.18192 534.68373 z" stroke-linecap="round" />
</g>
<g transform="matrix(1.0588260645 0 0 1.0588260645 -669.2582092503 2101.5911571525)" id="Ca8jkFfUzzhEE88wPwDuk"  >
<linearGradient id="SVGID_11_7_4" gradientUnits="userSpaceOnUse" gradientTransform="matrix(1 0 0 1 0 0)"  x1="306.7415806" y1="-82.35294117647071" x2="306.74157642396204" y2="613.4831528479302">
<stop offset="0%" style="stop-color:#FFB604;stop-opacity: 1"/>
<stop offset="50.57834436009464%" style="stop-color:#FF0495;stop-opacity: 1"/>
<stop offset="100%" style="stop-color:#AB03C1;stop-opacity: 1"/>
</linearGradient>
<path style="stroke: rgb(160,126,73); stroke-width: 0; stroke-dasharray: none; stroke-linecap: butt; stroke-dashoffset: 0; stroke-linejoin: miter; stroke-miterlimit: 4; fill: url(#SVGID_11_7_4); fill-rule: nonzero; opacity: 1;" vector-effect="non-scaling-stroke"  transform=" translate(-276.52098, -253.63925)" d="M 493.83189 38.64 L 67.55342999999999 38.64 L 249.06499 353.02725 L 226.81176 391.45214 L 0.806759999999997 0 L 449.01203 0 z M 11.11908 58.32972 L 225.527 429.69512000000003 L 408.11899 113.43652000000003 L 452.78684 113.49629000000003 L 225.43657 507.27850000000007 L 0 116.81090000000006 z M 271.39966 466.93351 L 485.80756999999994 95.56810999999999 L 120.62358999999992 95.56810999999999 L 98.34142999999992 56.85472999999999 L 553.0419599999999 56.85472999999999 L 327.60538999999994 447.32232999999997 z" stroke-linecap="round" />
</g>
<g transform="matrix(1.497246901 0 0 1.497246901 460.928397268 464.7953977225)" id="w4O3p547ffpnh7SowKyMJ"  >
<path style="stroke: rgb(87,160,73); stroke-width: 0; stroke-dasharray: none; stroke-linecap: butt; stroke-dashoffset: 0; stroke-linejoin: miter; stroke-miterlimit: 4; fill: rgb(251,113,133); fill-rule: nonzero; opacity: 1;" vector-effect="non-scaling-stroke"  transform=" translate(-276.52098, -253.63925)" d="M 493.83189 38.64 L 67.55342999999999 38.64 L 249.06499 353.02725 L 226.81176 391.45214 L 0.806759999999997 0 L 449.01203 0 z M 11.11908 58.32972 L 225.527 429.69512000000003 L 408.11899 113.43652000000003 L 452.78684 113.49629000000003 L 225.43657 507.27850000000007 L 0 116.81090000000006 z M 271.39966 466.93351 L 485.80756999999994 95.56810999999999 L 120.62358999999992 95.56810999999999 L 98.34142999999992 56.85472999999999 L 553.0419599999999 56.85472999999999 L 327.60538999999994 447.32232999999997 z" stroke-linecap="round" />
</g>
<g transform="matrix(16.9444395729 0 0 16.9444395729 2968.5398872064 -492.2516675259)" id="yJJe1xNKExocsOagIhupC"  >
<path style="stroke: rgb(136,132,171); stroke-width: 0; stroke-dasharray: none; stroke-linecap: butt; stroke-dashoffset: 0; stroke-linejoin: miter; stroke-miterlimit: 4; fill: rgb(26,24,31); fill-rule: nonzero; opacity: 1;" vector-effect="non-scaling-stroke"  transform=" translate(0, 0)" d="M -17.64706 -10.55932 C -17.64706 -14.47377 -14.47377 -17.64706 -10.55932 -17.64706 L 10.55932 -17.64706 L 10.55932 -17.64706 C 14.47377 -17.64706 17.64706 -14.47377 17.64706 -10.55932 L 17.64706 10.55932 L 17.64706 10.55932 C 17.64706 14.47377 14.47377 17.64706 10.55932 17.64706 L -10.55932 17.64706 L -10.55932 17.64706 C -14.47377 17.64706 -17.64706 14.47377 -17.64706 10.55932 z" stroke-linecap="round" />
</g>
<g transform="matrix(0.84 0 0 0.84 3159.3081061913 -1312.6481047299)" id="qZBiNlNNSKk9RnNTBGdNO"  >
<linearGradient id="SVGID_24_5" gradientUnits="userSpaceOnUse" gradientTransform="matrix(1 0 0 1 0 0)"  x1="306.7415806" y1="-82.35294117647071" x2="306.74157642396204" y2="613.4831528479302">
<stop offset="0%" style="stop-color:#FFB604;stop-opacity: 1"/>
<stop offset="50.57834436009464%" style="stop-color:#FF0495;stop-opacity: 1"/>
<stop offset="100%" style="stop-color:#AB03C1;stop-opacity: 1"/>
</linearGradient>
<path style="stroke: rgb(160,126,73); stroke-width: 0; stroke-dasharray: none; stroke-linecap: butt; stroke-dashoffset: 0; stroke-linejoin: miter; stroke-miterlimit: 4; fill: url(#SVGID_24_5); fill-rule: nonzero; opacity: 1;" vector-effect="non-scaling-stroke"  transform=" translate(-276.52098, -253.63925)" d="M 493.83189 38.64 L 67.55342999999999 38.64 L 249.06499 353.02725 L 226.81176 391.45214 L 0.806759999999997 0 L 449.01203 0 z M 11.11908 58.32972 L 225.527 429.69512000000003 L 408.11899 113.43652000000003 L 452.78684 113.49629000000003 L 225.43657 507.27850000000007 L 0 116.81090000000006 z M 271.39966 466.93351 L 485.80756999999994 95.56810999999999 L 120.62358999999992 95.56810999999999 L 98.34142999999992 56.85472999999999 L 553.0419599999999 56.85472999999999 L 327.60538999999994 447.32232999999997 z" stroke-linecap="round" />
</g>
<g transform="matrix(0.6224245986 0 0 0.6224245986 4070.4303400913 -1921.0785846847)" id="xHDJc7bSwCLwlFXoSUFlE"  >
<path style="stroke: rgb(160,126,73); stroke-width: 0; stroke-dasharray: none; stroke-linecap: butt; stroke-dashoffset: 0; stroke-linejoin: miter; stroke-miterlimit: 4; fill: rgb(255,255,255); fill-rule: nonzero; opacity: 1;" vector-effect="non-scaling-stroke"  transform=" translate(0, 0)" d="M 217.31091 -214.99925 L -208.96755 -214.99925 L -27.455989999999986 99.388 L -49.70921999999999 137.81289 L -275.71421999999995 -253.63924999999998 L 172.49105000000003 -253.63924999999998 z M -265.4019 -195.30953 L -50.99398000000002 176.05587000000003 L 131.59801 -140.20272999999997 L 176.26585999999998 -140.14296 L -51.08441000000002 253.63925000000003 L -276.52098 -136.82834999999997 z M -5.12132 213.29426 L 209.28659 -158.07114 L -155.89739000000003 -158.07114 L -178.17955000000003 -196.78452000000001 L 276.52098 -196.78452000000001 L 51.08441000000002 193.68308 z" stroke-linecap="round" />
</g>
<g transform="matrix(1 0 0 1 3642.4230504065 -1509.4820519509)" id="BZD-IWZVFG14bjA7sYHqI"  >
<linearGradient id="SVGID_6" gradientUnits="userSpaceOnUse" gradientTransform="matrix(1 0 0 1 0 0)"  x1="312.6239293651385" y1="-25.490196078431524" x2="312.6239293651385" y2="576.2282508871461">
<stop offset="0%" style="stop-color:#FE842C;stop-opacity: 1"/>
<stop offset="42.31688129915172%" style="stop-color:#FF0495;stop-opacity: 1"/>
<stop offset="100%" style="stop-color:#BA00D3;stop-opacity: 1"/>
</linearGradient>
<path style="stroke: rgb(160,126,73); stroke-width: 0; stroke-dasharray: none; stroke-linecap: butt; stroke-dashoffset: 0; stroke-linejoin: miter; stroke-miterlimit: 4; fill: url(#SVGID_6); fill-rule: nonzero; opacity: 1;" vector-effect="non-scaling-stroke"  transform=" translate(-271.1176, -247.13925)" d="M 493.02513 38.64 L 66.74667 38.64 L 248.25823 353.02725 L 226.005 391.45214 L 0 0 L 448.20527 0 z M 260.5929 460.1835 L 475.00081 88.81809999999996 L 109.81682999999998 88.81809999999996 L 87.53466999999998 50.10471999999996 L 542.2352 50.10471999999996 L 316.79863 440.57232 z M 11.31232 45.32972 L 225.72023 416.69512000000003 L 408.31222 100.43652000000003 L 452.98007 100.49629000000003 L 225.62980000000002 494.27850000000007 L 0.1932300000000282 103.81090000000006 z" stroke-linecap="round" />
</g>
<g transform="matrix(1 0 0 1 3017.9841584609 -1921.0785846847)" id="KOMSF5xkRqtdKrKZQM4SX"  >
<path style="stroke: rgb(250,116,0); stroke-width: 0; stroke-dasharray: none; stroke-linecap: butt; stroke-dashoffset: 0; stroke-linejoin: miter; stroke-miterlimit: 4; fill: rgb(254,139,40); fill-rule: nonzero; opacity: 1;" vector-effect="non-scaling-stroke"  transform=" translate(-41.265474553, -41.265474553)" d="M 0 0 L 82.53094910591471 0 L 82.53094910591471 82.53094910591471 L 0 82.53094910591471 Z" stroke-linecap="round" />
</g>
<g transform="matrix(1 0 0 1 3017.9841584609 -1719.6070593379)" id="QznIbWhZi8learFoNrIQQ"  >
<path style="stroke: rgb(250,116,0); stroke-width: 0; stroke-dasharray: none; stroke-linecap: butt; stroke-dashoffset: 0; stroke-linejoin: miter; stroke-miterlimit: 4; fill: rgb(234,4,159); fill-rule: nonzero; opacity: 1;" vector-effect="non-scaling-stroke"  transform=" translate(-41.265474553, -41.265474553)" d="M 0 0 L 82.53094910591471 0 L 82.53094910591471 82.53094910591471 L 0 82.53094910591471 Z" stroke-linecap="round" />
</g>
<g transform="matrix(1 0 0 1 3017.9841584609 -1611.3950373297)" id="96y8VVd7TXYcp10eFQJKT"  >
<path style="stroke: rgb(250,116,0); stroke-width: 0; stroke-dasharray: none; stroke-linecap: butt; stroke-dashoffset: 0; stroke-linejoin: miter; stroke-miterlimit: 4; fill: rgb(234,4,159); fill-rule: nonzero; opacity: 1;" vector-effect="non-scaling-stroke"  transform=" translate(-41.265474553, -41.265474553)" d="M 0 0 L 82.53094910591471 0 L 82.53094910591471 82.53094910591471 L 0 82.53094910591471 Z" stroke-linecap="round" />
</g>
<g transform="matrix(1 0 0 1 3017.9841584609 -1824.5173742308)" id="aAT2oP7Kdw2UOgaEx36j7"  >
<path style="stroke: rgb(80,180,156); stroke-width: 0; stroke-dasharray: none; stroke-linecap: butt; stroke-dashoffset: 0; stroke-linejoin: miter; stroke-miterlimit: 4; fill: rgb(254,46,115); fill-rule: nonzero; opacity: 1;" vector-effect="non-scaling-stroke"  transform=" translate(-41.265474553, -41.265474553)" d="M 0 0 L 82.53094910591471 0 L 82.53094910591471 82.53094910591471 L 0 82.53094910591471 Z" stroke-linecap="round" />
</g>
<g transform="matrix(2.8152 0 0 0.306 2058.0844438211 -361.4189682175)" id="PbIYA5aUR9KT0hCRYFRAA"  >
<path style="stroke: rgb(165,29,91); stroke-width: 0; stroke-dasharray: none; stroke-linecap: butt; stroke-dashoffset: 0; stroke-linejoin: miter; stroke-miterlimit: 4; fill: rgb(128,165,68); fill-rule: nonzero; opacity: 1;" vector-effect="non-scaling-stroke"  transform=" translate(-0.000005, -0.000005)" d="M -147.05882 -147.05882 L 147.05883000000003 -147.05882 L 147.05883000000003 147.05883000000003 L -147.05882 147.05883000000003 z" stroke-linecap="round" />
</g>
<g transform="matrix(2.8152 0 0 0.306 2058.0844438211 -181.4189664175)" id="Zx8rfKZpEE9dkx-LAjION"  >
<path style="stroke: rgb(165,29,91); stroke-width: 0; stroke-dasharray: none; stroke-linecap: butt; stroke-dashoffset: 0; stroke-linejoin: miter; stroke-miterlimit: 4; fill: rgb(255,102,0); fill-rule: nonzero; opacity: 1;" vector-effect="non-scaling-stroke"  transform=" translate(-0.000005, -0.000005)" d="M -147.05882 -147.05882 L 147.05883000000003 -147.05882 L 147.05883000000003 147.05883000000003 L -147.05882 147.05883000000003 z" stroke-linecap="round" />
</g>
<g transform="matrix(2.8152 0 0 0.306 2058.0844438211 -447.2516670759)" id="8GLAk6uyFfqKPvtc96G4E"  >
<path style="stroke: rgb(165,29,91); stroke-width: 0; stroke-dasharray: none; stroke-linecap: butt; stroke-dashoffset: 0; stroke-linejoin: miter; stroke-miterlimit: 4; fill: rgb(137,48,43); fill-rule: nonzero; opacity: 1;" vector-effect="non-scaling-stroke"  transform=" translate(-0.000005, -0.000005)" d="M -147.05882 -147.05882 L 147.05883000000003 -147.05882 L 147.05883000000003 147.05883000000003 L -147.05882 147.05883000000003 z" stroke-linecap="round" />
</g>
<g transform="matrix(2.8152 0 0 0.306 2058.0844438211 -271.4189673175)" id="c7gAhR3FHdBbQ4wL7gJMO"  >
<path style="stroke: rgb(165,29,91); stroke-width: 0; stroke-dasharray: none; stroke-linecap: butt; stroke-dashoffset: 0; stroke-linejoin: miter; stroke-miterlimit: 4; fill: rgb(26,43,53); fill-rule: nonzero; opacity: 1;" vector-effect="non-scaling-stroke"  transform=" translate(-0.000005, -0.000005)" d="M -147.05882 -147.05882 L 147.05883000000003 -147.05882 L 147.05883000000003 147.05883000000003 L -147.05882 147.05883000000003 z" stroke-linecap="round" />
</g>
<g transform="matrix(2.8152 0 0 0.306 2058.0844438211 -91.4189655175)" id="AQZVC6lm_wVts7zgQ-0Gf"  >
<path style="stroke: rgb(165,29,91); stroke-width: 0; stroke-dasharray: none; stroke-linecap: butt; stroke-dashoffset: 0; stroke-linejoin: miter; stroke-miterlimit: 4; fill: rgb(64,32,65); fill-rule: nonzero; opacity: 1;" vector-effect="non-scaling-stroke"  transform=" translate(-0.000005, -0.000005)" d="M -147.05882 -147.05882 L 147.05883000000003 -147.05882 L 147.05883000000003 147.05883000000003 L -147.05882 147.05883000000003 z" stroke-linecap="round" />
</g>
</svg>